<svg width="114" height="417" viewBox="0 0 114 417" fill="none" xmlns="http://www.w3.org/2000/svg">
<path d="M106.707 416.707C106.317 417.098 105.683 417.098 105.293 416.707L98.9289 410.343C98.5384 409.953 98.5384 409.319 98.9289 408.929C99.3195 408.538 99.9526 408.538 100.343 408.929L106 414.586L111.657 408.929C112.047 408.538 112.681 408.538 113.071 408.929C113.462 409.319 113.462 409.953 113.071 410.343L106.707 416.707ZM101 1.00001L101 2.00001L101 1.00001ZM107 6.00001L107 416L105 416L105 6.00001L107 6.00001ZM101 2.00001L3.67934e-07 2.00004L-3.67938e-07 4.36306e-05L101 6.50101e-06L101 2.00001ZM105 6.00001C105 3.79087 103.209 2 101 2.00001L101 6.50101e-06C104.314 4.20207e-06 107 2.6863 107 6.00001L105 6.00001Z" fill="#EFEEEE"/>
</svg>
