<svg width="70" height="103" viewBox="0 0 70 103" fill="none" xmlns="http://www.w3.org/2000/svg">
<path d="M69.7071 95.7071C70.0976 95.3166 70.0976 94.6834 69.7071 94.2929L63.3431 87.9289C62.9526 87.5384 62.3195 87.5384 61.9289 87.9289C61.5384 88.3195 61.5384 88.9526 61.9289 89.3431L67.5858 95L61.9289 100.657C61.5384 101.047 61.5384 101.681 61.9289 102.071C62.3195 102.462 62.9526 102.462 63.3431 102.071L69.7071 95.7071ZM32 90L31 90L32 90ZM37 96L69 96L69 94L37 94L37 96ZM33 90L33 50.5L31 50.5L31 90L33 90ZM37 94C34.7909 94 33 92.2091 33 90L31 90C31 93.3137 33.6863 96 37 96L37 94Z" fill="#EFEEEE"/>
<path d="M69.7071 7.2929C70.0976 7.68342 70.0976 8.31659 69.7071 8.70711L63.3431 15.0711C62.9526 15.4616 62.3195 15.4616 61.9289 15.0711C61.5384 14.6805 61.5384 14.0474 61.9289 13.6569L67.5858 8L61.9289 2.34315C61.5384 1.95262 61.5384 1.31946 61.9289 0.928935C62.3195 0.538409 62.9526 0.538409 63.3431 0.928935L69.7071 7.2929ZM32 13L31 13L32 13ZM37 7L69 7L69 9L37 9L37 7ZM33 13L33 52.5L31 52.5L31 13L33 13ZM37 9C34.7909 9 33 10.7909 33 13L31 13C31 9.68629 33.6863 7 37 7L37 9Z" fill="#EFEEEE"/>
<path d="M-1.22935e-06 50L32 50" stroke="#EFEEEE" stroke-width="2"/>
</svg>
