<?xml version="1.0" encoding="utf-8"?>
<svg viewBox="0 0 34 34" xmlns="http://www.w3.org/2000/svg" xmlns:xlink="http://www.w3.org/1999/xlink">
  <style>
    :root>svg { display: none }
    :root>svg:target { display: block }
  </style>
  <svg id="telegram" viewBox="0 0 15 14" fill="none" xmlns="http://www.w3.org/2000/svg">
    <path d="M14.7587 0.148758C14.5648 -0.0353792 14.2157 -0.0558389 13.6339 0.128299C13.2267 0.251057 9.6391 1.68324 6.45873 3.0745C3.60804 4.32255 1.28094 5.40691 1.00945 5.55013C0.69917 5.65243 0.0398265 5.95932 0.00104155 6.4299C-0.0183509 6.73679 0.233751 7.00277 0.69917 7.22783C1.20337 7.4938 3.43351 8.27127 3.89893 8.43495C4.05407 9.02829 5.0043 12.4246 5.06247 12.6292C5.12065 12.9361 5.31458 13.1202 5.41154 13.1816C5.43093 13.1816 5.45032 13.2225 5.48911 13.243C5.52789 13.2839 5.60546 13.3044 5.68303 13.3044C5.77999 13.3044 5.91574 13.243 6.0321 13.1612C6.63326 12.6497 7.66106 11.5039 7.95195 11.1766C9.21246 12.2405 10.6087 13.4067 10.7445 13.5499L10.7639 13.5703C11.0741 13.8363 11.4038 14 11.6947 14C11.7917 14 11.8886 13.9795 11.9856 13.9386C12.3153 13.8159 12.5674 13.4885 12.6449 13.0179C12.6449 12.9975 12.6643 12.9361 12.7031 12.8133C13.2461 10.2968 13.6921 8.06668 14.0412 6.20484C14.3709 4.36346 14.6617 2.58347 14.8169 1.62186C14.8363 1.37634 14.8751 1.19221 14.8945 1.06945C14.9526 0.721631 14.972 0.332896 14.7587 0.148758ZM12.0244 2.99266L10.0657 4.91588C8.70826 6.24576 6.92415 7.96438 5.74121 9.08966C5.74121 9.08966 5.74121 9.08966 5.74121 9.11012L5.72182 9.13058C5.72182 9.13058 5.72182 9.15104 5.70243 9.15104C5.70243 9.1715 5.70243 9.1715 5.68303 9.19196V9.21242C5.68303 9.21242 5.68303 9.21242 5.68303 9.23288C5.60546 10.1945 5.45032 11.8313 5.39215 12.5678C5.39215 12.5678 5.39215 12.5678 5.39215 12.5474C5.33397 12.3428 4.42252 9.0692 4.2286 8.39403L11.9468 2.99266C11.9468 2.9722 11.9856 2.95174 12.005 2.93128C12.0244 2.93128 12.0244 2.91082 12.0438 2.91082C12.0632 2.91082 12.0632 2.91082 12.0825 2.89036C12.0825 2.91082 12.0632 2.95174 12.0244 2.99266Z" fill="currentColor"/>
  </svg>
  <svg id="swiper_prev" viewBox="0 0 21 35" fill="none" xmlns="http://www.w3.org/2000/svg">
    <path d="M5.73038 17.1912L20.0555 31.5163L17.1904 34.3814L-2.59731e-05 17.1909L2.86505 14.3259L2.86531 14.3261L17.1912 0.000251574L20.0562 2.86533L5.73038 17.1912Z" fill="currentColor"/>
  </svg>
  <svg id="swiper_next" viewBox="0 0 21 35" fill="none" xmlns="http://www.w3.org/2000/svg">
    <path d="M14.651 17.1902L0.325824 2.86501L3.1909 -6.68341e-05L20.3814 17.1904L17.5163 20.0555L17.516 20.0552L3.19018 34.3811L0.3251 31.516L14.651 17.1902Z" fill="currentColor"/>
  </svg>
  <svg id="logo" viewBox="0 0 26 18" fill="none" xmlns="http://www.w3.org/2000/svg">
    <path d="M5.04488 18C4.0268 17.9917 3.0681 17.7708 2.16877 17.3373C1.26952 16.8954 0.5466 16.2665 0 15.4506L1.13728 14.1758C1.64861 14.8897 2.23929 15.4336 2.90932 15.8076C3.57935 16.1815 4.3199 16.3685 5.13098 16.3685C5.38335 16.3685 5.62183 16.3526 5.84641 16.3209L5.04488 18ZM8.56927 10.6168V1.63175H1.79849V0H10.5V6.57219L8.56927 10.6168Z" fill="white"></path>
    <path d="M6.75 18L15.1651 0H17.0849L25.5 18H23.4488L15.7174 1.10572H16.5063L8.77489 18H6.75ZM10.0635 13.1914L10.642 11.6486H21.345L21.9236 13.1914H10.0635Z" fill="white"></path>
  </svg>
  <svg id="close" viewBox="0 0 12 12" fill="none" xmlns="http://www.w3.org/2000/svg">
    <path d="M5.89948 4.35063L1.72418 0.17532L0.0742597 1.82524L4.24957 6.00054L0.175389 10.0747L1.8253 11.7246L5.89948 7.65046L9.97375 11.7247L11.6237 10.0748L7.5494 6.00054L11.7248 1.82514L10.0749 0.175225L5.89948 4.35063Z" fill="currentColor"/>
  </svg>
  <svg id="avatar" viewBox="0 0 64 64" fill="none" xmlns="http://www.w3.org/2000/svg">
    <g id="Icon-User" transform="translate(278.000000, 278.000000)">
      <path d="M-246-222.1c-13.2,0-23.9-10.7-23.9-23.9s10.7-23.9,23.9-23.9c13.2,0,23.9,10.7,23.9,23.9 S-232.8-222.1-246-222.1L-246-222.1z M-246-267.3c-11.7,0-21.3,9.6-21.3,21.3c0,11.7,9.6,21.3,21.3,21.3 c11.7,0,21.3-9.6,21.3-21.3C-224.7-257.7-234.3-267.3-246-267.3L-246-267.3z" id="Fill-57" fill="currentColor"/>
      <path d="M-260-228.7l-2.4-1.1c0.7-1.7,2.9-2.6,5.4-3.7c2.4-1.1,5.4-2.4,5.4-4v-2.2 c-0.9-0.7-2.3-2.3-2.5-4.6c-0.7-0.7-1.8-2-1.8-3.6c0-1,0.4-1.8,0.7-2.3c-0.2-1.1-0.6-3.3-0.6-5c0-5.5,3.8-9.1,9.8-9.1 c1.7,0,3.8,0.5,4.9,1.7c2.7,0.5,4.9,3.7,4.9,7.4c0,2.4-0.4,4.4-0.7,5.3c0.3,0.5,0.6,1.2,0.6,2c0,1.9-0.9,3.1-1.8,3.7 c-0.2,2.3-1.5,3.8-2.3,4.5v2.2c0,1.4,2.5,2.3,4.8,3.2c2.7,1,5.5,2,6.4,4.3l-2.5,0.9c-0.4-1.2-2.8-2-4.8-2.8 c-3.1-1.1-6.6-2.4-6.6-5.6v-3.6l0.6-0.4c0.1,0,1.8-1.2,1.8-3.5v-0.9l0.8-0.3c0.1-0.1,0.9-0.5,0.9-1.7c0-0.4-0.3-0.8-0.4-0.9 l-0.5-0.6l0.2-0.7c0,0,0.7-2.2,0.7-5.2c0-2.5-1.4-4.8-2.9-4.8h-0.8l-0.4-0.7c-0.3-0.5-1.5-1-3.1-1c-4.5,0-7.2,2.4-7.2,6.5 c0,1.9,0.7,5,0.7,5l0.2,0.7l-0.5,0.5c0,0-0.4,0.5-0.4,1c0,0.7,0.9,1.6,1.3,2l0.5,0.4l0,0.7c0,2.2,1.9,3.4,1.9,3.4l0.6,0.4l0,3.6 c0,3.3-3.7,5-7,6.4C-257.5-230.4-259.6-229.4-260-228.7" fill="currentColor"/>
    </g>
  </svg>
  <svg id="module_plus_solid" viewBox="0 0 18 18" fill="none" xmlns="http://www.w3.org/2000/svg">
    <circle cx="9" cy="9" r="8" fill="white" stroke="currentColor" stroke-width="2"/>
    <path d="M8.32121 13V5H9.67879V13H8.32121ZM5 9.67879V8.32121H13V9.67879H5Z" fill="currentColor" stroke="#30B54D"/>
  </svg>
  <svg id="module_check_round" viewBox="0 0 18 18" fill="none" xmlns="http://www.w3.org/2000/svg">
    <circle cx="9" cy="9" r="8.5" fill="currentColor" stroke="white"/>
    <path d="M9 11.2225L12.1112 8.11123L11.2223 7.2223L8.11107 10.3335L5.88877 8.11123L4.99983 9.00017L7.22214 11.2225L7.22211 11.2225L8.11104 12.1114L8.11107 12.1114L8.11109 12.1114L9.00003 11.2225L9 11.2225Z" fill="white"/>
  </svg>
  <svg id="module_check" viewBox="0 0 12 9" fill="none" xmlns="http://www.w3.org/2000/svg">
    <path d="M6.36401 6.74276L11.3138 1.79301L9.89955 0.378796L4.9498 5.32854L1.41427 1.79301L5.27501e-05 3.20722L3.53559 6.74276L4.9498 8.15697L6.36401 6.74276Z" fill="currentColor"/>
  </svg>
  <svg id="module_plus" viewBox="0 0 18 18" fill="none" xmlns="http://www.w3.org/2000/svg">
    <circle cx="9" cy="9" r="8" fill="white" stroke="currentColor" stroke-width="2"/>
    <path d="M8.32121 13V5H9.67879V13H8.32121ZM5 9.67879V8.32121H13V9.67879H5Z" fill="currentColor" stroke="#30B54D"/>
  </svg>
  <svg id="arrow" viewBox="0 0 20 12" fill="none" xmlns="http://www.w3.org/2000/svg">
    <path d="M9.9 8.49934L18.1495 0.249878L19.7994 1.89979L9.89987 11.7993L8.24996 10.1494L8.25008 10.1493L0.000122209 1.89929L1.65004 0.249377L9.9 8.49934Z" fill="#302D3D"/>
  </svg>
  <svg id="play" viewBox="0 0 94 94" fill="none" xmlns="http://www.w3.org/2000/svg">
    <circle cx="47" cy="47" r="47" fill="white"/>
    <path d="M65 47.5L38.75 62.6554L38.75 32.3446L65 47.5Z" fill="currentColor"/>
  </svg>
  <svg id="checkbox" viewBox="0 0 12 9" fill="none" xmlns="http://www.w3.org/2000/svg">
    <path d="M6.36328 6.89949L11.313 1.94975L9.89882 0.535534L4.94907 5.48528L1.41353 1.94975L-0.000679672 3.36396L3.53485 6.89949L4.94907 8.31371L6.36328 6.89949Z" fill="currentColor"/>
  </svg>
</svg>