<?xml version="1.0" encoding="utf-8"?>
<svg viewBox="0 0 34 34" xmlns="http://www.w3.org/2000/svg" xmlns:xlink="http://www.w3.org/1999/xlink">
  <style>
    :root>svg { display: none }
    :root>svg:target { display: block }
  </style>
  <svg id="arr1" viewBox="0 0 157 16" fill="none" xmlns="http://www.w3.org/2000/svg">
    <path d="M156.707 8.70711C157.098 8.31658 157.098 7.68342 156.707 7.29289L150.343 0.928932C149.953 0.538408 149.319 0.538408 148.929 0.928932C148.538 1.31946 148.538 1.95262 148.929 2.34315L154.586 8L148.929 13.6569C148.538 14.0474 148.538 14.6805 148.929 15.0711C149.319 15.4616 149.953 15.4616 150.343 15.0711L156.707 8.70711ZM0 9L156 9L156 7L0 7L0 9Z" fill="#7D7C85"/>
  </svg>
  <svg id="arr2" viewBox="0 0 257 16" fill="none" xmlns="http://www.w3.org/2000/svg">
    <path d="M256.707 8.70713C257.098 8.3166 257.098 7.68344 256.707 7.29292L250.343 0.928954C249.953 0.53843 249.319 0.53843 248.929 0.928954C248.538 1.31948 248.538 1.95264 248.929 2.34317L254.586 8.00002L248.929 13.6569C248.538 14.0474 248.538 14.6806 248.929 15.0711C249.319 15.4616 249.953 15.4616 250.343 15.0711L256.707 8.70713ZM-8.74228e-08 9L256 9.00002L256 7.00002L8.74228e-08 7L-8.74228e-08 9Z" fill="#EFEEEE"/>
  </svg>
  <svg id="arr3" viewBox="0 0 114 417" fill="none" xmlns="http://www.w3.org/2000/svg">
    <path d="M106.707 416.707C106.317 417.098 105.683 417.098 105.293 416.707L98.9289 410.343C98.5384 409.953 98.5384 409.319 98.9289 408.929C99.3195 408.538 99.9526 408.538 100.343 408.929L106 414.586L111.657 408.929C112.047 408.538 112.681 408.538 113.071 408.929C113.462 409.319 113.462 409.953 113.071 410.343L106.707 416.707ZM101 1.00001L101 2.00001L101 1.00001ZM107 6.00001L107 416L105 416L105 6.00001L107 6.00001ZM101 2.00001L3.67934e-07 2.00004L-3.67938e-07 4.36306e-05L101 6.50101e-06L101 2.00001ZM105 6.00001C105 3.79087 103.209 2 101 2.00001L101 6.50101e-06C104.314 4.20207e-06 107 2.6863 107 6.00001L105 6.00001Z" fill="#EFEEEE"/>
  </svg>
  <svg id="arr4" viewBox="0 0 120 16" fill="none" xmlns="http://www.w3.org/2000/svg">
    <path d="M119.707 8.70712C120.098 8.31659 120.098 7.68343 119.707 7.2929L113.343 0.928942C112.953 0.538418 112.319 0.538418 111.929 0.928942C111.538 1.31947 111.538 1.95263 111.929 2.34316L117.586 8.00001L111.929 13.6569C111.538 14.0474 111.538 14.6806 111.929 15.0711C112.319 15.4616 112.953 15.4616 113.343 15.0711L119.707 8.70712ZM-8.74228e-08 9L119 9.00001L119 7.00001L8.74228e-08 7L-8.74228e-08 9Z" fill="#EFEEEE"/>
  </svg>
  <svg id="arr5" viewBox="0 0 70 103" fill="none" xmlns="http://www.w3.org/2000/svg">
    <path d="M69.7071 95.7071C70.0976 95.3166 70.0976 94.6834 69.7071 94.2929L63.3431 87.9289C62.9526 87.5384 62.3195 87.5384 61.9289 87.9289C61.5384 88.3195 61.5384 88.9526 61.9289 89.3431L67.5858 95L61.9289 100.657C61.5384 101.047 61.5384 101.681 61.9289 102.071C62.3195 102.462 62.9526 102.462 63.3431 102.071L69.7071 95.7071ZM32 90L31 90L32 90ZM37 96L69 96L69 94L37 94L37 96ZM33 90L33 50.5L31 50.5L31 90L33 90ZM37 94C34.7909 94 33 92.2091 33 90L31 90C31 93.3137 33.6863 96 37 96L37 94Z" fill="#EFEEEE"/>
    <path d="M69.7071 7.2929C70.0976 7.68342 70.0976 8.31659 69.7071 8.70711L63.3431 15.0711C62.9526 15.4616 62.3195 15.4616 61.9289 15.0711C61.5384 14.6805 61.5384 14.0474 61.9289 13.6569L67.5858 8L61.9289 2.34315C61.5384 1.95262 61.5384 1.31946 61.9289 0.928935C62.3195 0.538409 62.9526 0.538409 63.3431 0.928935L69.7071 7.2929ZM32 13L31 13L32 13ZM37 7L69 7L69 9L37 9L37 7ZM33 13L33 52.5L31 52.5L31 13L33 13ZM37 9C34.7909 9 33 10.7909 33 13L31 13C31 9.68629 33.6863 7 37 7L37 9Z" fill="#EFEEEE"/>
    <path d="M-1.22935e-06 50L32 50" stroke="#EFEEEE" stroke-width="2"/>
  </svg>
  <svg id="arr6" viewBox="0 0 238 199" fill="none" xmlns="http://www.w3.org/2000/svg">
    <path d="M230.707 198.707C230.317 199.098 229.683 199.098 229.293 198.707L222.929 192.343C222.538 191.953 222.538 191.319 222.929 190.929C223.319 190.538 223.953 190.538 224.343 190.929L230 196.586L235.657 190.929C236.047 190.538 236.681 190.538 237.071 190.929C237.462 191.319 237.462 191.953 237.071 192.343L230.707 198.707ZM225 75.5L225 74.5L225 75.5ZM6 75.5L6 76.5L6 75.5ZM1 70.5L7.73933e-08 70.5L1 70.5ZM231 80.5L231 198L229 198L229 80.5L231 80.5ZM225 76.5L6 76.5L6 74.5L225 74.5L225 76.5ZM7.73933e-08 70.5L0 1.24187e-09L2 -1.24187e-09L2 70.5L7.73933e-08 70.5ZM6 76.5C2.6863 76.5 1.11361e-07 73.8137 7.73933e-08 70.5L2 70.5C2 72.7091 3.79086 74.5 6 74.5L6 76.5ZM229 80.5C229 78.2909 227.209 76.5 225 76.5L225 74.5C228.314 74.5 231 77.1863 231 80.5L229 80.5Z" fill="#EFEEEE"/>
  </svg>
  <svg id="arr7" viewBox="0 0 16 43" fill="none" xmlns="http://www.w3.org/2000/svg">
    <path d="M7.2929 42.2071C7.68342 42.5976 8.31658 42.5976 8.70711 42.2071L15.0711 35.8431C15.4616 35.4526 15.4616 34.8195 15.0711 34.4289C14.6805 34.0384 14.0474 34.0384 13.6569 34.4289L8 40.0858L2.34315 34.4289C1.95262 34.0384 1.31946 34.0384 0.928934 34.4289C0.538409 34.8195 0.538409 35.4526 0.928934 35.8431L7.2929 42.2071ZM7 0.5L7 41.5L9 41.5L9 0.5L7 0.5Z" fill="#7D7C85"/>
  </svg>
  <svg id="arr8" viewBox="0 0 59 16" fill="none" xmlns="http://www.w3.org/2000/svg">
    <path d="M58.7071 8.70711C59.0976 8.31659 59.0976 7.68342 58.7071 7.2929L52.3431 0.928937C51.9526 0.538412 51.3195 0.538412 50.9289 0.928937C50.5384 1.31946 50.5384 1.95263 50.9289 2.34315L56.5858 8L50.9289 13.6569C50.5384 14.0474 50.5384 14.6805 50.9289 15.0711C51.3195 15.4616 51.9526 15.4616 52.3431 15.0711L58.7071 8.70711ZM-8.74228e-08 9L58 9.00001L58 7.00001L8.74228e-08 7L-8.74228e-08 9Z" fill="#EFEEEE"/>
  </svg>
  <svg id="arr9" viewBox="0 0 61 16" fill="none" xmlns="http://www.w3.org/2000/svg">
    <path d="M60.2071 8.70711C60.5976 8.31658 60.5976 7.68342 60.2071 7.29289L53.8431 0.928941C53.4526 0.538417 52.8194 0.538419 52.4289 0.928943C52.0384 1.31947 52.0384 1.95263 52.4289 2.34316L58.0858 8L52.4289 13.6569C52.0384 14.0474 52.0384 14.6806 52.4289 15.0711C52.8195 15.4616 53.4526 15.4616 53.8432 15.0711L60.2071 8.70711ZM1.57287e-06 9.00009L59.5 9L59.5 7L-1.57288e-06 7.00009L1.57287e-06 9.00009Z" fill="#EFEEEE"/>
  </svg>
  <svg id="arr10" viewBox="0 0 43 16" fill="none" xmlns="http://www.w3.org/2000/svg">
    <path d="M42.7071 8.70711C43.0976 8.31659 43.0976 7.68342 42.7071 7.2929L36.3431 0.928935C35.9526 0.538411 35.3195 0.538411 34.9289 0.928935C34.5384 1.31946 34.5384 1.95262 34.9289 2.34315L40.5858 8L34.9289 13.6569C34.5384 14.0474 34.5384 14.6805 34.9289 15.0711C35.3195 15.4616 35.9526 15.4616 36.3431 15.0711L42.7071 8.70711ZM-8.74228e-08 9L42 9L42 7L8.74228e-08 7L-8.74228e-08 9Z" fill="#EFEEEE"/>
  </svg>
  <svg id="arr11" viewBox="0 0 43 16" fill="none" xmlns="http://www.w3.org/2000/svg">
    <path d="M42.7071 8.70711C43.0976 8.31659 43.0976 7.68342 42.7071 7.2929L36.3431 0.928935C35.9526 0.538411 35.3195 0.538411 34.9289 0.928935C34.5384 1.31946 34.5384 1.95262 34.9289 2.34315L40.5858 8L34.9289 13.6569C34.5384 14.0474 34.5384 14.6805 34.9289 15.0711C35.3195 15.4616 35.9526 15.4616 36.3431 15.0711L42.7071 8.70711ZM-8.74228e-08 9L42 9L42 7L8.74228e-08 7L-8.74228e-08 9Z" fill="#EFEEEE"/>
  </svg>
  <svg id="arr12" viewBox="0 0 43 16" fill="none" xmlns="http://www.w3.org/2000/svg">
    <path d="M42.7071 8.70711C43.0976 8.31659 43.0976 7.68342 42.7071 7.2929L36.3431 0.928935C35.9526 0.538411 35.3195 0.538411 34.9289 0.928935C34.5384 1.31946 34.5384 1.95262 34.9289 2.34315L40.5858 8L34.9289 13.6569C34.5384 14.0474 34.5384 14.6805 34.9289 15.0711C35.3195 15.4616 35.9526 15.4616 36.3431 15.0711L42.7071 8.70711ZM-8.74228e-08 9L42 9L42 7L8.74228e-08 7L-8.74228e-08 9Z" fill="#EFEEEE"/>
  </svg>
  <svg id="arr13" viewBox="0 0 158 41" fill="none" xmlns="http://www.w3.org/2000/svg">
    <path d="M150.707 0.29289C150.317 -0.0976323 149.683 -0.0976323 149.293 0.29289L142.929 6.65685C142.538 7.04738 142.538 7.68054 142.929 8.07107C143.319 8.46159 143.953 8.46159 144.343 8.07107L150 2.41421L155.657 8.07106C156.047 8.46159 156.681 8.46159 157.071 8.07106C157.462 7.68054 157.462 7.04738 157.071 6.65685L150.707 0.29289ZM145 40L145 41L145 40ZM151 35L151 0.999997L149 0.999997L149 35L151 35ZM145 39L-1.54316e-08 39L1.54312e-08 41L145 41L145 39ZM149 35C149 37.2091 147.209 39 145 39L145 41C148.314 41 151 38.3137 151 35L149 35Z" fill="#EFEEEE"/>
  </svg>
















</svg>