<?xml version="1.0" encoding="utf-8"?>
<svg viewBox="0 0 34 34" xmlns="http://www.w3.org/2000/svg" xmlns:xlink="http://www.w3.org/1999/xlink">
  <style>
    :root>svg { display: none }
    :root>svg:target { display: block }
  </style>
  
  <svg id="trash" fill="none" stroke="currentColor" stroke-linecap="round" stroke-linejoin="round" stroke-width="2" viewBox="0 0 24 24" xmlns="http://www.w3.org/2000/svg">
    <path d="M3 6h18"></path>
    <path d="M19 6v14a2 2 0 0 1-2 2H7a2 2 0 0 1-2-2V6m3 0V4a2 2 0 0 1 2-2h4a2 2 0 0 1 2 2v2"></path>
    <path d="M10 11v6"></path>
    <path d="M14 11v6"></path>
  </svg>
  <svg id="pencil" fill="none" stroke="currentColor" stroke-linecap="round" stroke-linejoin="round" stroke-width="2" viewBox="0 0 24 24" xmlns="http://www.w3.org/2000/svg">
    <path d="M11 4H4a2 2 0 0 0-2 2v14a2 2 0 0 0 2 2h14a2 2 0 0 0 2-2v-7"></path>
    <path d="M18.5 2.5a2.121 2.121 0 0 1 3 3L12 15l-4 1 1-4 9.5-9.5z"></path>
  </svg>
  <svg id="plus" fill="none" stroke="currentColor" stroke-linecap="round" stroke-linejoin="round" stroke-width="2" viewBox="0 0 24 24" xmlns="http://www.w3.org/2000/svg">
    <path d="M12 5v14"></path>
    <path d="M5 12h14"></path>
  </svg>
  <svg id="video" fill="none" stroke="currentColor" stroke-linecap="round" stroke-linejoin="round" stroke-width="2" viewBox="0 0 24 24" xmlns="http://www.w3.org/2000/svg">
    <rect width="20" height="20" x="2" y="2" rx="2.18" ry="2.18"></rect>
    <path d="M7 2v20"></path>
    <path d="M17 2v20"></path>
    <path d="M2 12h20"></path>
    <path d="M2 7h5"></path>
    <path d="M2 17h5"></path>
    <path d="M17 17h5"></path>
    <path d="M17 7h5"></path>
  </svg>
  <svg id="step" fill="none" stroke="currentColor" stroke-linecap="round" stroke-linejoin="round" stroke-width="2" viewBox="0 0 24 24" xmlns="http://www.w3.org/2000/svg">
    <path d="m4 17 6-6-6-6"></path>
    <path d="M12 19h8"></path>
  </svg>
</svg>