<svg width="158" height="41" viewBox="0 0 158 41" fill="none" xmlns="http://www.w3.org/2000/svg">
<path d="M150.707 0.29289C150.317 -0.0976323 149.683 -0.0976323 149.293 0.29289L142.929 6.65685C142.538 7.04738 142.538 7.68054 142.929 8.07107C143.319 8.46159 143.953 8.46159 144.343 8.07107L150 2.41421L155.657 8.07106C156.047 8.46159 156.681 8.46159 157.071 8.07106C157.462 7.68054 157.462 7.04738 157.071 6.65685L150.707 0.29289ZM145 40L145 41L145 40ZM151 35L151 0.999997L149 0.999997L149 35L151 35ZM145 39L-1.54316e-08 39L1.54312e-08 41L145 41L145 39ZM149 35C149 37.2091 147.209 39 145 39L145 41C148.314 41 151 38.3137 151 35L149 35Z" fill="#EFEEEE"/>
</svg>
