<svg width="238" height="199" viewBox="0 0 238 199" fill="none" xmlns="http://www.w3.org/2000/svg">
<path d="M230.707 198.707C230.317 199.098 229.683 199.098 229.293 198.707L222.929 192.343C222.538 191.953 222.538 191.319 222.929 190.929C223.319 190.538 223.953 190.538 224.343 190.929L230 196.586L235.657 190.929C236.047 190.538 236.681 190.538 237.071 190.929C237.462 191.319 237.462 191.953 237.071 192.343L230.707 198.707ZM225 75.5L225 74.5L225 75.5ZM6 75.5L6 76.5L6 75.5ZM1 70.5L7.73933e-08 70.5L1 70.5ZM231 80.5L231 198L229 198L229 80.5L231 80.5ZM225 76.5L6 76.5L6 74.5L225 74.5L225 76.5ZM7.73933e-08 70.5L0 1.24187e-09L2 -1.24187e-09L2 70.5L7.73933e-08 70.5ZM6 76.5C2.6863 76.5 1.11361e-07 73.8137 7.73933e-08 70.5L2 70.5C2 72.7091 3.79086 74.5 6 74.5L6 76.5ZM229 80.5C229 78.2909 227.209 76.5 225 76.5L225 74.5C228.314 74.5 231 77.1863 231 80.5L229 80.5Z" fill="#EFEEEE"/>
</svg>
